HIERARCHY
ROOT Hips
{
	OFFSET 0.000000 0.000000 0.000000
	CHANNELS 6 Xposition Yposition Zposition Zrotation Yrotation Xrotation 
	JOINT LHipJoint
	{
		OFFSET 0.000000 0.000000 0.000000
		CHANNELS 3 Zrotation Yrotation Xrotation
		JOINT LeftUpLeg
		{
			OFFSET 1.363060 -1.794630 0.839290
			CHANNELS 3 Zrotation Yrotation Xrotation
			JOINT LeftLeg
			{
				OFFSET 2.448110 -6.726130 0.000000
				CHANNELS 3 Zrotation Yrotation Xrotation
				JOINT LeftFoot
				{
					OFFSET 2.562200 -7.039590 0.000000
					CHANNELS 3 Zrotation Yrotation Xrotation
					JOINT LeftToeBase
					{
						OFFSET 0.157640 -0.433110 2.322550
						CHANNELS 3 Zrotation Yrotation Xrotation
						End Site
						{
							OFFSET 0.000000 0.000000 0.000000
						}
					}
				}
			}
		}
	}
	JOINT RHipJoint
	{
		OFFSET 0.000000 0.000000 0.000000
		CHANNELS 3 Zrotation Yrotation Xrotation
		JOINT RightUpLeg
		{
			OFFSET -1.305520 -1.794630 0.839290
			CHANNELS 3 Zrotation Yrotation Xrotation
			JOINT RightLeg
			{
				OFFSET -2.542530 -6.985550 0.000000
				CHANNELS 3 Zrotation Yrotation Xrotation
				JOINT RightFoot
				{
					OFFSET -2.568260 -7.056230 0.000000
					CHANNELS 3 Zrotation Yrotation Xrotation
					JOINT RightToeBase
					{
						OFFSET -0.164730 -0.452590 2.363150
						CHANNELS 3 Zrotation Yrotation Xrotation
						End Site
						{
							OFFSET 0.000000 0.000000 0.000000
						}
					}
				}
			}
		}
	}
	JOINT LowerBack
	{
		OFFSET 0.000000 0.000000 0.000000
		CHANNELS 3 Zrotation Yrotation Xrotation
		JOINT Spine
		{
			OFFSET 0.028270 2.035590 -0.193380
			CHANNELS 3 Zrotation Yrotation Xrotation
			JOINT Spine1
			{
				OFFSET 0.056720 2.048850 -0.042750
				CHANNELS 3 Zrotation Yrotation Xrotation
				JOINT Neck
				{
					OFFSET 0.000000 0.000000 0.000000
					CHANNELS 3 Zrotation Yrotation Xrotation
					JOINT Neck1
					{
						OFFSET -0.054170 1.746240 0.172020
						CHANNELS 3 Zrotation Yrotation Xrotation
						JOINT Head
						{
							OFFSET 0.104070 1.761360 -0.123970
							CHANNELS 3 Zrotation Yrotation Xrotation
							End Site
							{
								OFFSET 0.000000 0.000000 0.000000
							}
						}
					}
				}
				JOINT LeftShoulder
				{
					OFFSET 0.000000 0.000000 0.000000
					CHANNELS 3 Zrotation Yrotation Xrotation
					JOINT LeftArm
					{
						OFFSET 3.362410 1.200890 -0.311210
						CHANNELS 3 Zrotation Yrotation Xrotation
						JOINT LeftForeArm
						{
							OFFSET 4.983000 -0.000000 -0.000000
							CHANNELS 3 Zrotation Yrotation Xrotation
							JOINT LeftHand
							{
								OFFSET 3.483560 -0.000000 -0.000000
								CHANNELS 3 Zrotation Yrotation Xrotation
								JOINT LeftFingerBase
								{
									OFFSET 0.000000 0.000000 0.000000
									CHANNELS 3 Zrotation Yrotation Xrotation
									JOINT LeftHandIndex1
									{
										OFFSET 0.715260 -0.000000 -0.000000
										CHANNELS 3 Zrotation Yrotation Xrotation
										End Site
										{
											OFFSET 0.000000 0.000000 0.000000
										}
									}
								}
								JOINT LThumb
								{
									OFFSET 0.000000 0.000000 0.000000
									CHANNELS 3 Zrotation Yrotation Xrotation
									End Site
									{
										OFFSET 0.000000 0.000000 0.000000
									}
								}
							}
						}
					}
				}
				JOINT RightShoulder
				{
					OFFSET 0.000000 0.000000 0.000000
					CHANNELS 3 Zrotation Yrotation Xrotation
					JOINT RightArm
					{
						OFFSET -3.136600 1.374050 -0.404650
						CHANNELS 3 Zrotation Yrotation Xrotation
						JOINT RightForeArm
						{
							OFFSET -5.241900 -0.000000 -0.000000
							CHANNELS 3 Zrotation Yrotation Xrotation
							JOINT RightHand
							{
								OFFSET -3.444170 -0.000000 -0.000000
								CHANNELS 3 Zrotation Yrotation Xrotation
								JOINT RightFingerBase
								{
									OFFSET 0.000000 0.000000 0.000000
									CHANNELS 3 Zrotation Yrotation Xrotation
									JOINT RightHandIndex1
									{
										OFFSET -0.622530 -0.000000 -0.000000
										CHANNELS 3 Zrotation Yrotation Xrotation
										End Site
										{
											OFFSET 0.000000 0.000000 0.000000
										}
									}
								}
								JOINT RThumb
								{
									OFFSET 0.000000 0.000000 0.000000
									CHANNELS 3 Zrotation Yrotation Xrotation
									End Site
									{
										OFFSET 0.000000 0.000000 0.000000
									}
								}
							}
						}
					}
				}
			}
		}
	}
}
MOTION
Frames: 4
Frame Time: 0.016667
-0.148917 16.959343 -0.148917 -5.475828 21.245295 3.014668 -23.529018 21.754573 -23.514267 -20.906089 6.341512 -24.337619 -25.493581 42.316408 -2.351520 9.215186 37.644961 -23.634092 0.000000 0.000000 0.000000 1.402725 -41.224892 8.688765 33.153364 27.406560 -29.431634 -27.395228 -19.611765 49.696231 8.411074 -39.750758 -2.405877 0.000000 0.000000 0.000000 17.162723 6.377947 19.094603 -0.477696 0.590349 -3.109478 -24.862492 17.944852 1.220158 2.471032 0.750626 -20.584082 26.837201 -4.409848 30.536260 0.000000 0.000000 0.000000 17.384145 -14.628316 13.383711 -64.406194 -62.681581 -5.764007 -138.459882 -89.989779 156.250363 -39.551236 72.385059 -20.387923 -70.960018 51.855444 -0.000000 0.000000 0.000000 0.000000 0.000000 0.000000 0.000000 -40.681812 -3.177720 2.170043 80.621845 48.192417 -77.194389 -98.003800 -8.962763 0.795038 5.910913 3.338228 0.417321 5.883878 3.122114 -0.000000 0.000000 0.000000 0.000000 0.000000 0.000000 0.000000 
-0.130168 16.996134 0.018561 -7.132216 19.138464 4.740072 -24.388517 26.555601 -25.135684 -24.959781 5.115865 -26.311062 -19.091640 38.019070 2.703787 27.016565 38.394871 -10.832323 0.000000 0.000000 0.000000 4.302068 -41.275975 6.926837 36.065633 25.838000 -28.612137 -29.763353 -17.546197 48.347858 9.505589 -37.891934 -1.132894 0.000000 0.000000 0.000000 14.220441 0.097506 28.386304 -0.713870 -0.200922 -5.980749 -21.882396 8.785119 -12.160305 6.089653 2.027540 -29.755792 14.499997 -1.412162 34.869691 0.000000 0.000000 0.000000 9.854687 3.607731 6.285998 -72.555324 -34.549379 1.332175 -156.285437 -77.883706 161.232720 -36.251888 70.082971 -18.612061 -64.251378 51.902863 -0.000000 0.000000 0.000000 0.000000 0.000000 0.000000 0.000000 -37.879667 -15.887597 13.283508 93.795458 22.303581 -16.317696 44.080713 -25.152555 0.271816 -2.017908 2.129499 0.136690 -2.033297 2.120838 0.000000 0.000000 0.000000 0.000000 0.000000 0.000000 0.000000 
-0.109194 17.034743 0.185471 -9.721583 22.460258 -0.508633 -30.323649 38.107585 -23.539716 -33.166534 13.445547 -37.971931 -6.966912 40.006414 -3.348879 73.617110 70.401628 43.777188 0.000000 0.000000 0.000000 4.494545 -45.651770 9.028897 36.839986 22.019435 -26.385191 -31.802819 -16.231855 47.236446 10.026022 -35.844595 0.270988 0.000000 0.000000 0.000000 14.238753 -2.840950 24.141620 3.041937 -1.301450 -1.393403 -17.130292 6.905685 -3.922620 8.148747 0.636675 -24.171722 8.096891 -0.803010 34.306663 0.000000 0.000000 0.000000 8.130134 1.769935 2.706288 -70.684829 -26.709528 2.564929 -167.565464 -79.689115 163.481199 -34.155979 64.240672 -16.108799 -57.225005 49.931206 -0.000000 0.000000 0.000000 0.000000 0.000000 0.000000 0.000000 -31.164390 -2.449885 10.747700 97.932287 16.674987 -0.570658 28.256196 -25.239250 0.130778 -1.176016 1.883733 0.065701 -1.182636 1.879519 0.000000 0.000000 0.000000 0.000000 0.000000 0.000000 0.000000 
-0.093480 17.069387 0.343902 -9.725385 24.827042 1.018402 -31.886705 39.415681 -24.214302 -32.929948 19.903277 -36.212624 -17.026287 56.089676 -11.991986 53.702211 70.278184 21.538275 0.000000 0.000000 0.000000 6.720486 -43.784816 9.912158 32.359609 26.144964 -31.842029 -30.310846 -16.909497 51.522369 10.155383 -40.160030 4.092078 0.000000 0.000000 0.000000 14.791211 -2.891426 22.284263 3.745696 -1.690711 -1.421378 -17.572218 6.854013 -3.861470 8.025176 0.810305 -24.407959 8.820360 -0.794343 34.353149 0.000000 0.000000 0.000000 7.737688 1.162423 2.753827 -70.784239 -28.617232 1.494883 -165.619376 -79.245205 162.663175 -34.254191 65.485396 -17.036349 -58.767684 50.193046 -0.000000 0.000000 0.000000 0.000000 0.000000 0.000000 0.000000 -31.112237 -2.507709 11.468365 97.946352 16.233766 -0.918722 28.216646 -24.934071 0.164696 -1.120986 1.744255 0.082775 -1.129594 1.738964 0.000000 0.000000 0.000000 0.000000 0.000000 0.000000 0.000000 
